<svg width="47" height="49" viewBox="0 0 47 49" fill="none" xmlns="http://www.w3.org/2000/svg">
<ellipse cx="23.825" cy="24.0994" rx="22.8955" ry="24.0994" fill="white"/>
<path d="M33.1927 14H14.7111C13.4405 14 12.4124 15.05 12.4124 16.3333L12.4009 30.3333C12.4009 31.6167 13.4405 32.6667 14.7111 32.6667H33.1927C34.4633 32.6667 35.5029 31.6167 35.5029 30.3333V16.3333C35.5029 15.05 34.4633 14 33.1927 14ZM32.7307 18.9583L24.5641 24.115C24.1945 24.3483 23.7093 24.3483 23.3397 24.115L15.1731 18.9583C15.0573 18.8927 14.9559 18.8039 14.875 18.6975C14.7941 18.5911 14.7354 18.4692 14.7025 18.3393C14.6696 18.2093 14.6632 18.0739 14.6835 17.9414C14.7039 17.8088 14.7507 17.6818 14.8211 17.568C14.8915 17.4543 14.9841 17.3561 15.0931 17.2795C15.2022 17.2029 15.3255 17.1494 15.4555 17.1223C15.5856 17.0953 15.7198 17.0951 15.85 17.1219C15.9801 17.1488 16.1035 17.202 16.2127 17.2783L23.9519 22.1667L31.6911 17.2783C31.8003 17.202 31.9237 17.1488 32.0539 17.1219C32.184 17.0951 32.3182 17.0953 32.4483 17.1223C32.5784 17.1494 32.7017 17.2029 32.8107 17.2795C32.9198 17.3561 33.0123 17.4543 33.0827 17.568C33.1531 17.6818 33.1999 17.8088 33.2203 17.9414C33.2407 18.0739 33.2342 18.2093 33.2013 18.3393C33.1684 18.4692 33.1097 18.5911 33.0288 18.6975C32.9479 18.8039 32.8465 18.8927 32.7307 18.9583Z" fill="black"/>
</svg>
