<svg width="47" height="49" viewBox="0 0 47 49" fill="none" xmlns="http://www.w3.org/2000/svg">
<ellipse cx="23.7545" cy="24.0994" rx="22.8955" ry="24.0994" fill="white"/>
<rect width="27.4746" height="28.9193" transform="translate(10.0172 9.63974)" fill="white"/>
<path d="M35.445 16.455C34.5714 16.8618 33.645 17.1291 32.6964 17.2479C33.6958 16.6179 34.4436 15.6269 34.8005 14.4596C33.8618 15.0476 32.8326 15.4597 31.7611 15.6827C31.0406 14.8712 30.0856 14.333 29.0445 14.1518C28.0034 13.9706 26.9346 14.1565 26.0043 14.6807C25.074 15.2048 24.3342 16.0377 23.9 17.05C23.4659 18.0623 23.3616 19.1973 23.6034 20.2784C21.6996 20.1781 19.8371 19.6575 18.1368 18.7503C16.4366 17.8432 14.9366 16.5697 13.7343 15.0127C13.3088 15.782 13.0852 16.6565 13.0864 17.5467C13.0864 19.2939 13.9323 20.8375 15.2156 21.7412C14.4555 21.716 13.7121 21.4999 13.0474 21.111V21.1725C13.0474 22.3363 13.4298 23.4644 14.1299 24.3653C14.8299 25.2662 15.8044 25.8844 16.8882 26.1153C16.1826 26.3168 15.4426 26.3464 14.7245 26.202C15.0301 27.2038 15.6257 28.0799 16.428 28.7076C17.2302 29.3353 18.1989 29.6832 19.1983 29.7025C18.2051 30.5236 17.0678 31.1306 15.8515 31.4887C14.6352 31.8468 13.3637 31.949 12.1099 31.7895C14.2984 33.2708 16.8459 34.0573 19.4479 34.0548C28.2558 34.0548 33.0707 26.3755 33.0707 19.7157C33.0707 19.4988 33.0661 19.2795 33.057 19.0638C33.9939 18.3509 34.8025 17.4667 35.445 16.455Z" fill="black"/>
</svg>
