<svg width="46" height="49" viewBox="0 0 46 49" fill="none" xmlns="http://www.w3.org/2000/svg">
<ellipse cx="22.8955" cy="24.0994" rx="22.8955" ry="24.0994" fill="white"/>
<path d="M22.8956 19.461C20.6805 19.461 18.8946 21.2797 18.8946 23.4969C18.8946 25.714 20.6977 27.5328 22.8956 27.5328C25.0936 27.5328 26.8966 25.714 26.8966 23.4969C26.8966 21.2797 25.0936 19.461 22.8956 19.461ZM34.9158 23.4969C34.9158 21.8167 34.9158 20.1712 34.8299 18.491C34.7441 16.551 34.2976 14.8189 32.8895 13.4158C31.4815 11.9955 29.7815 11.5451 27.8582 11.4585C26.1926 11.3719 24.5613 11.3719 22.8956 11.3719C21.23 11.3719 19.5987 11.3719 17.933 11.4585C16.0098 11.5451 14.2926 11.9955 12.9017 13.4158C11.4937 14.8362 11.0472 16.551 10.9613 18.491C10.8755 20.1712 10.8755 21.8167 10.8755 23.4969C10.8755 25.1771 10.8755 26.8226 10.9613 28.5028C11.0472 30.4428 11.4937 32.1749 12.9017 33.578C14.3098 34.9983 16.0098 35.4487 17.933 35.5353C19.5987 35.6219 21.23 35.6219 22.8956 35.6219C24.5613 35.6219 26.1926 35.6219 27.8582 35.5353C29.7815 35.4487 31.4986 34.9983 32.8895 33.578C34.2976 32.1576 34.7441 30.4428 34.8299 28.5028C34.933 26.8399 34.9158 25.1771 34.9158 23.4969ZM22.8956 29.7153C19.4785 29.7153 16.731 26.9439 16.731 23.4969C16.731 20.0499 19.4785 17.2785 22.8956 17.2785C26.3128 17.2785 29.0603 20.0499 29.0603 23.4969C29.0603 26.9439 26.3128 29.7153 22.8956 29.7153ZM29.3178 18.4737C28.5279 18.4737 27.8754 17.8328 27.8754 17.0187C27.8754 16.2046 28.5108 15.5637 29.3178 15.5637C30.1249 15.5637 30.7603 16.2046 30.7603 17.0187C30.7646 17.2084 30.7303 17.397 30.6594 17.5728C30.5885 17.7486 30.4825 17.9078 30.3481 18.0406C30.2165 18.1762 30.0586 18.2831 29.8843 18.3546C29.7101 18.4261 29.5231 18.4607 29.335 18.4564L29.3178 18.4737Z" fill="black"/>
</svg>
